<?xml version="1.0" encoding="UTF-8"?>
<svg id="Layer_1" data-name="Layer 1" xmlns="http://www.w3.org/2000/svg" viewBox="0 0 1080 1080">
  <defs>
    <style>
      .cls-1 {
        fill: #fff;
      }

      .cls-2 {
        fill: #099fdb;
      }
    </style>
  </defs>
  <rect class="cls-1" x="-.21" y="-.21" width="1080.43" height="1080.43"/>
  <polygon class="cls-2" points="814.44 434.23 814.44 666.6 761.96 696.92 613.21 782.81 560.72 752.49 411.97 666.6 355.4 633.92 355.4 581.46 411.97 614.14 560.72 700.03 560.72 637.92 411.97 552.03 310.47 493.41 310.47 440.33 411.97 498.95 560.72 584.84 613.21 615.16 613.21 730.35 761.96 644.45 761.96 464.53 658.61 524.18 613.21 550.39 560.72 520.1 560.72 520.08 412.01 434.21 265.56 349.63 265.56 297.19 457.4 408 457.42 408 613.21 318.02 814.44 434.23"/>
</svg>