<svg width="163" height="54" viewBox="0 0 163 54" fill="none" xmlns="http://www.w3.org/2000/svg">
<path d="M107.173 26.5193L104.757 27.9135L102.342 26.5117L100.095 25.2145L99.2087 24.7039V53.3272H110.306V24.7039L107.173 26.5167V26.5193Z" fill="white"/>
<path d="M22.2782 10.3999C29.0038 10.3999 34.5038 12.652 38.7705 17.1561C42.6465 21.2288 44.5845 26.1262 44.5845 31.8508C44.5845 35.7856 43.6091 39.4139 41.6635 42.7384C39.5774 46.3183 36.6971 49.0427 33.0177 50.9118C29.8311 52.5255 26.1925 53.3324 22.0995 53.3324C15.4709 53.3324 10.0424 51.0905 5.81149 46.6043C1.93546 42.5137 0 37.4785 0 31.4985C0 27.7424 0.972838 24.2392 2.92107 20.9939C5.1042 17.3349 7.98696 14.6104 11.5668 12.8205C14.8121 11.2068 18.3818 10.3999 22.2782 10.3999ZM22.2782 20.5496C19.1503 20.5496 16.4948 21.6526 14.3117 23.8537C12.0877 26.0955 10.977 28.723 10.977 31.7308C10.977 34.9174 12.0877 37.6317 14.3117 39.8735C16.4948 42.0771 19.1605 43.1776 22.3089 43.1776C25.4572 43.1776 28.1101 42.0771 30.3341 39.8735C32.5377 37.6521 33.6382 34.9762 33.6382 31.8483C33.6382 28.7204 32.5377 26.0164 30.3341 23.8537C28.0514 21.6501 25.3678 20.5496 22.2782 20.5496Z" fill="white"/>
<path d="M53.3729 53.3297V10.6475H69.7579C75.0945 10.6475 79.7748 12.5344 83.7964 16.3083C86.0893 18.4353 87.8512 20.935 89.0794 23.8127C90.2258 26.5014 90.8003 29.2233 90.8003 31.9733C90.8003 36.0178 89.6539 39.8326 87.3609 43.4175C85.068 46.982 82.0652 49.6401 78.3552 51.3917C75.6026 52.6837 72.7377 53.3297 69.7554 53.3297H53.3704H53.3729ZM64.4725 43.9486H67.0054C69.089 43.9486 70.8508 43.6678 72.2883 43.1035C73.7259 42.5417 74.9975 41.6327 76.1031 40.3841C78.1662 38.0707 79.1978 35.2671 79.1978 31.9733C79.1978 28.6794 78.1662 25.9064 76.1031 23.5931C74.9975 22.3419 73.7259 21.4355 72.2883 20.8737C70.8508 20.312 69.089 20.0286 67.0054 20.0286H64.4725V43.9486Z" fill="white"/>
<path d="M120.381 53.3297V10.6475H131.481L151.9 36.7558V10.6475H163V53.3297H151.9L131.481 27.1882V53.3297H120.381Z" fill="white"/>
<path d="M113.411 5.87021V15.8207L111.164 17.1178L104.793 20.7973L102.546 19.4976L96.1755 15.8207L93.7523 14.4215V12.1745L96.1755 13.5738L102.546 17.2506V14.5926L96.1755 10.9131L91.8296 8.40317V6.13066L96.1755 8.64063L102.546 12.32L104.793 13.6172V18.5503L111.164 14.8709V7.16733L106.736 9.72071L104.793 10.8442L102.546 9.54708V9.54453L96.178 5.86766L89.9044 2.24697V0L98.1211 4.74673L104.793 0.893682L113.411 5.87021Z" fill="#2171EC"/>
</svg>
