<svg width="101" height="34" viewBox="0 0 101 34" fill="none" xmlns="http://www.w3.org/2000/svg">
<path d="M66.4088 16.4325L64.9121 17.2964L63.4154 16.4278L62.0231 15.624L61.4741 15.3076V33.0436H68.3501V15.3076L66.4088 16.4309V16.4325Z" fill="#021228"/>
<path d="M13.8044 6.44434C17.9718 6.44434 21.3797 7.83981 24.0235 10.6307C26.4253 13.1543 27.6261 16.1889 27.6261 19.7361C27.6261 22.1742 27.0217 24.4224 25.8161 26.4824C24.5235 28.7006 22.7388 30.3888 20.4589 31.5469C18.4844 32.5468 16.2298 33.0468 13.6936 33.0468C9.58631 33.0468 6.22264 31.6577 3.601 28.8778C1.19928 26.3432 0 23.2232 0 19.5177C0 17.1904 0.602804 15.0196 1.80999 13.0087C3.16274 10.7415 4.949 9.05332 7.16719 7.94423C9.17811 6.9443 11.39 6.44434 13.8044 6.44434ZM13.8044 12.7334C11.8662 12.7334 10.2208 13.4169 8.86801 14.7807C7.48995 16.1699 6.80171 17.7979 6.80171 19.6617C6.80171 21.6363 7.48995 23.3181 8.86801 24.7072C10.2208 26.0726 11.8725 26.7545 13.8233 26.7545C15.7741 26.7545 17.418 26.0726 18.7961 24.7072C20.1615 23.3307 20.8434 21.6726 20.8434 19.7345C20.8434 17.7963 20.1615 16.1208 18.7961 14.7807C17.3816 13.4153 15.7188 12.7334 13.8044 12.7334Z" fill="#021228"/>
<path d="M33.0711 33.0451V6.59766H43.2238C46.5305 6.59766 49.4306 7.76688 51.9226 10.1053C53.3433 11.4233 54.435 12.9722 55.196 14.7553C55.9064 16.4213 56.2624 18.1079 56.2624 19.8119C56.2624 22.318 55.552 24.6818 54.1313 26.9031C52.7105 29.1118 50.8498 30.7588 48.551 31.8442C46.8454 32.6448 45.0702 33.0451 43.2222 33.0451H33.0695H33.0711ZM39.9488 27.2322H41.5183C42.8093 27.2322 43.901 27.0582 44.7918 26.7085C45.6825 26.3604 46.4704 25.7972 47.1555 25.0235C48.4339 23.5901 49.0731 21.8529 49.0731 19.8119C49.0731 17.7709 48.4339 16.0526 47.1555 14.6192C46.4704 13.844 45.6825 13.2823 44.7918 12.9342C43.901 12.5861 42.8093 12.4105 41.5183 12.4105H39.9488V27.2322Z" fill="#021228"/>
<path d="M74.5918 33.0451V6.59766H81.4694L94.122 22.7753V6.59766H101V33.0451H94.122L81.4694 16.8469V33.0451H74.5918Z" fill="#021228"/>
<path d="M70.2737 3.63739V9.80307L68.8814 10.6068L64.934 12.8867L63.5417 12.0814L59.5942 9.80307L58.0927 8.93604V7.54374L59.5942 8.41077L63.5417 10.6891V9.04205L59.5942 6.76215L56.9013 5.20689V3.79877L59.5942 5.35403L63.5417 7.63393L64.934 8.43766V11.4944L68.8814 9.2145V4.44113L66.138 6.02329L64.934 6.71944L63.5417 5.9157V5.91412L59.5957 3.6358L55.7084 1.3923V0L60.7998 2.94124L64.934 0.553756L70.2737 3.63739Z" fill="#2171EC"/>
</svg>
