<?xml version="1.0" encoding="UTF-8"?>
<svg id="Layer_1" data-name="Layer 1" xmlns="http://www.w3.org/2000/svg" viewBox="0 0 1080 1080">
  <defs>
    <style>
      .cls-1 {
        fill: #fff;
      }

      .cls-2 {
        fill: #099fdb;
      }

      .cls-3 {
        fill: #191919;
      }
    </style>
  </defs>
  <rect class="cls-1" x="-.21" y="-.21" width="1080.43" height="1080.43"/>
  <g>
    <polygon class="cls-3" points="658.12 529.55 658.12 645.77 625.27 645.77 625.27 529.55 634.5 534.86 641.71 539.01 648.92 534.86 658.12 529.55"/>
    <polygon class="cls-3" points="861.79 489.52 861.79 646.26 828.94 646.26 728.79 537.89 728.79 646.26 695.94 646.26 695.94 489.52 728.79 489.52 828.94 597.89 828.94 489.52 861.79 489.52"/>
    <path class="cls-3" d="m524.56,489.52h-92v156.74h92c21.62,0,41.22-8.76,55.4-22.97,14.18-14.18,22.97-33.75,22.97-55.4,0-43.28-35.09-78.37-78.37-78.37Zm0,123.89h-59.15v-91.04h59.15c25.1,0,45.52,20.42,45.52,45.52s-20.42,45.52-45.52,45.52Z"/>
    <path class="cls-3" d="m334.3,489.52h-37.72c-21.65,0-41.22,8.76-55.4,22.97-14.21,14.18-22.96,33.75-22.96,55.4,0,43.27,35.09,78.37,78.37,78.37h37.72c21.65,0,41.22-8.76,55.4-22.97,14.21-14.18,22.97-33.75,22.97-55.4,0-43.28-35.09-78.37-78.37-78.37Zm0,123.89h-37.72c-25.1,0-45.52-20.42-45.52-45.52s20.42-45.52,45.52-45.52h37.72c25.1,0,45.52,20.42,45.52,45.52s-20.42,45.52-45.52,45.52Z"/>
    <polygon class="cls-2" points="678.67 458.75 678.67 501.16 669.1 506.69 641.95 522.37 632.37 516.84 605.22 501.16 594.9 495.2 594.9 485.62 605.22 491.59 632.37 507.26 632.37 495.93 605.22 480.25 586.7 469.55 586.7 459.87 605.22 470.56 632.37 486.24 641.95 491.77 641.95 512.79 669.1 497.12 669.1 464.28 650.24 475.17 641.95 479.95 632.37 474.42 632.37 474.42 605.23 458.75 578.5 443.31 578.5 433.74 613.51 453.97 613.52 453.97 641.95 437.54 678.67 458.75"/>
  </g>
</svg>